<svg xmlns="http://www.w3.org/2000/svg" viewBox="0 0 365.13 359.51"><defs><style>.cls-1{fill:#f44336;}.cls-2{fill:#b70808;}</style></defs><g id="Layer_2" data-name="Layer 2"><g id="Layer_1-2" data-name="Layer 1"><path class="cls-1" d="M171.05,239.44c-3.94,13.39-1.16,24.59,8.95,34.76.62-9.91,1.2-18.94,1.74-28q1.45-24.25,2.89-48.53c.34-5.68-1.51-7.84-7.31-8.46q-13.56-1.45-27.12-3a17.77,17.77,0,0,1-15.69-21.65q8.3-40.4,16.79-80.76c2.51-12,12.3-19.16,24.2-18,10.84,1.07,19,10.73,18.94,22.69a5.72,5.72,0,0,0,1.8,4.22c10.68,11.67,24.51,18,39,23.25a54.67,54.67,0,0,0,20.79,3.46c9.72-.34,19.45-.11,29.18-.07,12.35,0,19.43,7.17,19.48,19.52,0,3.74.09,7.48-.08,11.22a17.53,17.53,0,0,1-16.9,16.72c-3.36.13-6.73.15-10.09,0-1.89-.07-2.33.55-2.13,2.36,1.46,13.51,4.88,26.4,12.11,38.07a44.76,44.76,0,0,0,11.86,12.79c12.47,9,17.61,21.2,14.86,36.46-.42,2.36-.1,3.07,2.54,3.1A48.49,48.49,0,0,1,365,303c.39,3.32-.36,6.14-3.63,7.36-2.33.88-1,2.13-.81,3.25,3.74,20.82-8.65,40.15-28.8,44.9a38.14,38.14,0,0,1-46.06-28.83c-.14-.59-.36-1.16-.54-1.74-.39.1-.68.08-.79.22-5.53,6.61-10,5.88-13.18-2.22-.81-2.08-1.43-4.23-2.19-6.54-2.62,2.09-5.66,2.23-8.81,2.23-31.67,0-63.35,0-95-.08-2.73,0-4,.27-4.47,3.59-2.44,18.11-18.88,31.93-37.58,32-18.87.07-35.29-13.8-37.86-32.13-.33-2.3-.8-3.28-3.48-3.48-14.23-1-23.59-13.44-22.35-29.11a86.14,86.14,0,0,1,5.85-24.21,184.71,184.71,0,0,1,13.2-26.72c.74-1.25,1.4-2.05,3.1-2.05C111.29,239.45,141,239.44,171.05,239.44ZM186,127c-1.47,6.31-2.87,12.09-4.14,17.91-1,4.83.08,6.84,4.71,8.59q12.88,4.86,25.81,9.66c10.43,3.87,14.56,10.05,13.54,21.17-1.19,12.89-2.72,25.75-4.08,38.63-1.9,18.07-3.74,36.16-5.72,54.23-.24,2.19.28,2.72,2.43,2.67q9-.21,17.94,0c2.17.06,2.68-.66,2.68-2.74q-.07-62.79,0-125.59c0-2.28-.75-3.07-2.87-3.26a79.62,79.62,0,0,1-14.25-2.87A104.54,104.54,0,0,1,186,127Zm148.5,178.73a66.9,66.9,0,0,0-33.84,8.6c-2.58,1.43-4.31,3.26-4.15,6.47.54,10.89,5.38,19.21,15.3,23.82,10.18,4.74,20.09,3.34,28.56-4.05,8.23-7.18,10.81-16.5,8-27.09-1.78-6.64-2.66-7.18-9.6-7.56C337,305.87,335.23,305.8,334.49,305.77ZM123.21,321.56c-7.84,0-15.67.11-23.51-.06-2.53-.05-2.86.75-2.45,3,2.1,11.6,13.38,20.71,25.8,20.69s23.6-9,25.82-20.71c.43-2.29-.06-3-2.52-3C138.64,321.66,130.92,321.56,123.21,321.56Z"/><path class="cls-2" d="M59.92,185.56q-20.4,0-40.78,0C7.52,185.54,0,178,0,166.34q0-31.6,0-63.22C0,91.25,7.5,83.81,19.43,83.8q40.39,0,80.8,0c12.17,0,19.49,7.39,19.5,19.6q0,31.42,0,62.85c0,11.89-7.47,19.3-19.41,19.31Q80.11,185.59,59.92,185.56Z"/><path class="cls-1" d="M120.11,196.69q22.8,0,45.6,0c5.66,0,7.67,2,7.71,7.6,0,6.72-.12,13.45.07,20.18.07,2.54-.77,3-3.15,3q-46-.12-91.95,0a4.44,4.44,0,0,1-3.85-1.64,35.54,35.54,0,0,1-8.61-21.79c-.23-5.06,2-7.34,7.08-7.36Q96.56,196.65,120.11,196.69Z"/><path class="cls-1" d="M191.62,0a29.93,29.93,0,1,1-30,29.87A29.94,29.94,0,0,1,191.62,0Z"/></g></g></svg>